<svg xmlns="http://www.w3.org/2000/svg" width="300" height="100" viewBox="0 0 376.204 285.459">
  <g id="fAhAFq01" transform="translate(-174.729 216)">
    <path id="Path_457" data-name="Path 457" d="M209.922-111.316,113.5-6.632l8.22,8.581,7.9,8.581,96.738-105.37,97.054-105.714-6.639-7.551c-3.794-4.462-7.587-7.894-8.536-7.894C306.976-216,263.033-168.978,209.922-111.316Z" transform="translate(110.23 0)" fill="#01274e"/>
    <path id="Path_458" data-name="Path 458" d="M267.326-208.849c-1.9,3.775-3.161,8.581-2.529,10.64,1.9,6.178-76.821,81.688-85.041,81.688-7.587,0-16.755,8.237-16.755,15.1,0,2.4,2.845,7.208,6.007,10.3,8.22,8.237,18.652,4.119,21.5-8.237,1.9-6.864,15.807-23,42.995-49.768,22.446-21.623,41.73-38.785,42.995-37.755,4.11,2.4,16.123-8.581,16.123-15.1C292.617-216.057,273.332-221.548,267.326-208.849ZM183.233-99.017c-2.529,4.805-10.749,3.775-10.749-1.373,0-2.746.948-5.835,2.213-6.865C177.542-110.343,185.446-102.792,183.233-99.017Z" transform="translate(217.218 0.057)" fill="#0badf0"/>
    <path id="Path_459" data-name="Path 459" d="M329.36-199.239c-1.581,3.775-3.161,8.924-3.161,11.326-.316,2.4-27.5,28.831-61.015,58.348l-60.7,54.23H175.4c-24.027,0-29.4,1.03-29.4,5.148s5.374,5.148,30.982,5.148l30.665-.343,62.911-55.946c34.775-30.89,64.808-55.6,67.021-54.573,6.639,2.746,17.071-5.492,17.071-13.729C354.651-205.417,336-212.282,329.36-199.239Zm17.071,10.983c-2.529,4.805-10.749,3.775-10.749-1.373,0-2.746.948-5.835,2.213-6.865C340.741-199.582,348.644-192.031,346.431-188.256Z" transform="translate(180.475 24.083)" fill="#0daef1"/>
    <path id="Path_460" data-name="Path 460" d="M313.7-175.065c-1.265,2.059-3.161,7.208-4.426,11.326-.948,4.462-16.755,21.28-35.091,37.755L240.987-96.123l-53.743-.686c-42.995-.343-53.743.686-53.743,4.462,0,3.432,11.7,4.805,55.008,5.492,47.1.686,55.64,0,60.7-4.805,7.9-7.894,83.777-7.208,92,.686,11.381,11.326,28.136-7.894,18.336-20.937-5.058-6.864-18.02-6.521-21.5,0-2.213,4.462-8.536,5.148-36.356,4.462l-33.827-1.03,23.71-20.594c13.278-11.326,26.24-20.25,29.4-19.564,3.161.343,8.536-2.4,11.7-6.178,4.742-5.835,5.058-8.237,2.213-15.445C331.086-179.183,317.492-182.272,313.7-175.065Zm40.782,75.51c-2.529,4.805-10.749,3.776-10.749-1.373,0-2.746.948-5.835,2.213-6.865C348.79-110.881,356.693-103.33,354.48-99.555Z" transform="translate(153.458 89.834)" fill="#0baef3"/>
    <path id="Path_461" data-name="Path 461" d="M111.278-148.829C105.587-146.427,98-129.265,98-118.969c0,4.462,3.794,13.043,8.22,18.877,13.594,17.848,38.885,13.729,47.1-7.551,8.536-22.653-4.11-43.933-26.556-43.246C120.446-150.889,113.491-149.859,111.278-148.829Zm26.239,19.564C145.1-116.909,139.1-105.926,125.5-107.3c-8.536-1.03-10.433-2.746-11.065-11.326-.948-6.521.632-11.326,4.426-14.415C127.085-139.562,132.143-138.532,137.517-129.265Z" transform="translate(76.729 158.329)" fill="#0db2f4"/>
    <path id="Path_462" data-name="Path 462" d="M121-132.987v12.013H424.492V-145H121Z" transform="translate(126.441 172.691)" fill="#01254c"/>
  </g>
</svg>
